<svg width="57" height="57" viewBox="0 0 57 57" fill="none" xmlns="http://www.w3.org/2000/svg">
<path d="M31.3018 0.5H4.91753C2.63754 0.5 0.786294 2.35124 0.786294 4.62651V12.6724C0.341164 12.7431 0 13.1257 0 13.5907V16.9583C0 17.4234 0.341164 17.8057 0.786294 17.8765V20.6622C0.341164 20.733 0 21.1156 0 21.5804V24.948C0 25.4131 0.341164 25.7956 0.786294 25.8664V52.3688C0.786294 54.6438 2.63754 56.5 4.91753 56.5H31.3018C33.5817 56.5 35.433 54.6438 35.433 52.3688V4.62651C35.433 2.35124 33.5817 0.5 31.3018 0.5ZM22.7904 3.92682H23.9163V4.86895H22.7904V3.92682ZM15.1074 3.92682H21.1118V4.86895H15.1074V3.92682ZM18.1026 53.9326C17.3724 53.9326 16.7694 53.3438 16.7694 52.5995C16.7694 51.8552 17.3724 51.2663 18.1026 51.2663C18.8469 51.2663 19.4498 51.8552 19.4498 52.5995C19.4498 53.3438 18.8469 53.9326 18.1026 53.9326ZM32.3004 49.1748H3.92359V7.82505H32.3004C32.3004 35.0455 32.3004 21.669 32.3004 49.1748Z" fill="white"/>
<path d="M18.7131 35.0762V32.8718C18.7131 32.6128 18.5011 32.4007 18.2421 32.4007H16.0375C15.7784 32.4007 15.5664 32.6128 15.5664 32.8718V35.0762C15.5664 35.34 15.7784 35.5472 16.0375 35.5472H18.2421C18.5011 35.5472 18.7131 35.34 18.7131 35.0762Z" fill="white"/>
<path d="M9.44079 25.5551H14.5141C14.7732 25.5551 14.9852 25.3433 14.9852 25.084V20.0109C14.9852 19.7517 14.7732 19.5399 14.5141 19.5399H9.44079C9.18174 19.5399 8.96973 19.7517 8.96973 20.0109V25.084C8.96973 25.3433 9.18174 25.5551 9.44079 25.5551ZM10.767 21.8068C10.767 21.5465 10.9779 21.3358 11.238 21.3358H12.7182C12.9783 21.3358 13.1892 21.5465 13.1892 21.8068V23.2872C13.1892 23.5476 12.9783 23.7583 12.7182 23.7583H11.238C10.9779 23.7583 10.767 23.5476 10.767 23.2872V21.8068Z" fill="white"/>
<path d="M12.2421 22.278H11.7041V22.8162H12.2421V22.278Z" fill="white"/>
<path d="M24.5165 22.278H23.9785V22.8162H24.5165V22.278Z" fill="white"/>
<path d="M21.7084 25.5551H26.7817C27.0455 25.5551 27.2527 25.3433 27.2527 25.084V20.0109C27.2527 19.7517 27.0455 19.5399 26.7817 19.5399H21.7084C21.4493 19.5399 21.2373 19.7517 21.2373 20.0109V25.084C21.2373 25.3433 21.4493 25.5551 21.7084 25.5551ZM23.0355 21.8068C23.0355 21.5465 23.2464 21.3358 23.5065 21.3358H24.9867C25.2468 21.3358 25.4577 21.5465 25.4577 21.8068V23.2872C25.4577 23.5476 25.2468 23.7583 24.9867 23.7583H23.5065C23.2464 23.7583 23.0355 23.5476 23.0355 23.2872V21.8068Z" fill="white"/>
<path d="M26.7791 26.1173H24.5746C24.3155 26.1173 24.1035 26.3291 24.1035 26.5884V28.7928C24.1035 29.052 24.3155 29.2639 24.5746 29.2639H26.7791C27.0429 29.2639 27.2502 29.052 27.2502 28.7928V26.5884C27.2502 26.3291 27.0429 26.1173 26.7791 26.1173Z" fill="white"/>
<path d="M26.7831 33.9733H23.8861C23.627 33.9733 23.415 34.1854 23.415 34.4444V37.3462C23.415 37.6052 23.627 37.8173 23.8861 37.8173H26.7831C27.0469 37.8173 27.2542 37.6052 27.2542 37.3462V34.4444C27.2542 34.1854 27.0469 33.9733 26.7831 33.9733Z" fill="white"/>
<path d="M14.5141 31.8023H9.44079C9.18174 31.8023 8.96973 32.0095 8.96973 32.2734V37.3467C8.96973 37.6057 9.18174 37.8178 9.44079 37.8178H14.5141C14.7732 37.8178 14.9852 37.6057 14.9852 37.3467V32.2734C14.9852 32.0095 14.7732 31.8023 14.5141 31.8023ZM13.1892 35.5485C13.1892 35.8089 12.9783 36.0196 12.7182 36.0196H11.238C10.9779 36.0196 10.767 35.8089 10.767 35.5485V34.0681C10.767 33.8078 10.9779 33.5971 11.238 33.5971H12.7182C12.9783 33.5971 13.1892 33.8078 13.1892 34.0681V35.5485Z" fill="white"/>
<path d="M12.2421 34.5387H11.7041V35.0769H12.2421V34.5387Z" fill="white"/>
<path d="M16.5849 26.2175H17.527V20.482H17.9617C18.2219 20.482 18.4328 20.2713 18.4328 20.0109C18.4328 19.7505 18.2219 19.5399 17.9617 19.5399H16.1504V20.482H16.5849V26.2175Z" fill="white"/>
<path d="M20.4187 19.6512H19.4766V20.3698H20.4187V19.6512Z" fill="white"/>
<path d="M20.4187 23.1147H19.4766V23.8333H20.4187V23.1147Z" fill="white"/>
<path d="M12.0134 30.5394H11.0713V31.2579H12.0134V30.5394Z" fill="white"/>
<path d="M22.7214 35.1771H21.7793V35.8957H22.7214V35.1771Z" fill="white"/>
<path d="M20.3105 24.6143H18.6133V25.5564H20.3105V24.6143Z" fill="white"/>
<path d="M23.3269 26.8409H22.3848V28.538H23.3269V26.8409Z" fill="white"/>
<path d="M19.5486 21.9736H18.6064V22.6921H19.5486V21.9736Z" fill="white"/>
<path d="M22.0446 36.8732H16.3525V37.8154H22.0446V36.8732Z" fill="white"/>
<path d="M22.5425 33.9656V33.0235H20.184C19.9238 33.0235 19.7129 33.2342 19.7129 33.4946V35.8959H20.655V33.9656H22.5425Z" fill="white"/>
<path d="M19.1999 29.7348V28.7927H12.0144V27.2369H12.6129V27.8864H13.555V26.7658C13.555 26.5054 13.3441 26.2947 13.0839 26.2947H9.44238V27.2369H11.0722V29.2637C11.0722 29.5241 11.2832 29.7348 11.5433 29.7348H16.7213V31.458C16.7213 31.7184 16.9322 31.9291 17.1924 31.9291H18.733V30.987H17.6634V29.7348H19.1999Z" fill="white"/>
<path d="M24.0326 32.4699V31.2494H26.781C27.0411 31.2494 27.252 31.0388 27.252 30.7784C27.252 30.518 27.0411 30.3073 26.781 30.3073H21.3515V27.5016C21.3515 27.2413 21.1406 27.0306 20.8805 27.0306H15.0439V27.9727H20.4094V30.7784C20.4094 31.0388 20.6203 31.2494 20.8805 31.2494H23.0904V32.4699H24.0326Z" fill="white"/>
<path d="M38.1193 9.3493H36.4414V9.99104H38.1193V9.3493Z" fill="white"/>
<path d="M38.1235 22.4711H36.4482V23.1129H38.1235V22.4711Z" fill="white"/>
<path d="M40.0512 20.5453H36.4521L36.4523 21.5289H38.5989C38.859 21.5289 39.07 21.7396 39.07 21.9999V23.5838C39.07 23.8442 38.859 24.0549 38.5989 24.0549H36.4528L36.453 25.0342H40.0512V20.5453Z" fill="white"/>
<path d="M44.0338 21.1942H42.6172V22.6111H44.0338V21.1942Z" fill="white"/>
<path d="M53.1774 14.4655H51.7607V15.8823H53.1774V14.4655Z" fill="white"/>
<path d="M53.1759 22.8747H51.0156V25.035H53.1759V22.8747Z" fill="white"/>
<path d="M48.6914 11.915H53.1789V7.42706H48.6914V11.915ZM49.6722 8.87889C49.6722 8.61852 49.8831 8.40783 50.1432 8.40783H51.7273C51.9875 8.40783 52.1984 8.61852 52.1984 8.87889V10.4627C52.1984 10.7231 51.9875 10.9338 51.7273 10.9338H50.1432C49.8831 10.9338 49.6722 10.7231 49.6722 10.4627V8.87889Z" fill="white"/>
<path d="M56.5362 3.87305H36.4453C36.4453 3.92048 36.4458 6.63927 36.4458 6.4862H40.5187C40.7789 6.4862 40.9898 6.69689 40.9898 6.95727V12.3883C40.9898 12.6487 40.7789 12.8594 40.5187 12.8594H36.4471L36.4472 13.7145H38.9852C39.2454 13.7145 39.4563 13.9252 39.4563 14.1856V15.3867H38.5142V14.6567H36.4474L36.4477 16.3882H45.5313V17.3303H43.8539V18.7361H45.0318V19.6783H43.3828C43.1227 19.6783 42.9117 19.4676 42.9117 19.2072V17.3303H36.448L36.4481 18.2237H37.808V18.9928H36.4483L36.4484 19.6042H40.5187C40.7789 19.6042 40.9898 19.8149 40.9898 20.0753V25.5063C40.9898 25.7667 40.7789 25.9773 40.5187 25.9773H36.4497C36.4496 26.0248 36.445 28.3569 36.4453 28.2082H56.5362C56.8 28.2082 57.0073 27.9962 57.0073 27.7372V4.34411C57.0073 4.085 56.8 3.87305 56.5362 3.87305ZM45.8662 6.57223H46.8084V7.34092H45.8662V6.57223ZM44.9264 9.05589H45.8685V9.82504H44.9264V9.05589ZM46.8084 10.2777V11.0469H45.8662V10.2777H46.8084ZM44.9059 11.9154H46.7221V12.8575H44.9059V11.9154ZM42.2698 6.48528H44.2083C44.4685 6.48528 44.6794 6.69597 44.6794 6.95635C44.6794 7.21672 44.4685 7.42741 44.2083 7.42741H43.7101V13.5991H42.768V7.42741H42.2698V6.48528ZM41.6789 23.0815V20.7225C41.6789 20.4621 41.8898 20.2514 42.15 20.2514H44.5087C44.7689 20.2514 44.9798 20.4621 44.9798 20.7225V23.0815C44.9798 23.3419 44.7689 23.5526 44.5087 23.5526H42.15C41.8898 23.5526 41.6789 23.3419 41.6789 23.0815ZM48.5774 25.9783H42.4855V25.0361H48.5774V25.9783ZM46.1121 23.956V21.3859C46.1121 21.1255 46.323 20.9148 46.5832 20.9148H49.1073V21.8569H47.0543V23.956H46.1121ZM49.275 23.956H48.3329V23.1873H49.275V23.956ZM54.1181 25.5072C54.1181 25.7676 53.9072 25.9783 53.6471 25.9783H50.5447C50.2845 25.9783 50.0736 25.7676 50.0736 25.5072V22.4048C50.0736 22.1444 50.2845 21.9337 50.5447 21.9337H53.6471C53.9072 21.9337 54.1181 22.1444 54.1181 22.4048V25.5072ZM53.6471 18.9505H50.6726V20.2901H49.7304V18.9505H47.3323C47.0722 18.9505 46.8613 18.7398 46.8613 18.4794V15.4438H41.0857V14.5016H47.3323C47.5925 14.5016 47.8034 14.7123 47.8034 14.9727V18.0084H53.6471C53.9072 18.0084 54.1181 18.2191 54.1181 18.4794C54.1181 18.7398 53.9072 18.9505 53.6471 18.9505ZM48.9744 16.0827V14.2666H49.9165V16.0827H48.9744ZM54.1181 16.3541C54.1181 16.6145 53.9072 16.8252 53.6471 16.8252H51.2883C51.0282 16.8252 50.8172 16.6145 50.8172 16.3541V13.9951C50.8172 13.7348 51.0282 13.5241 51.2883 13.5241H53.6471C53.9072 13.5241 54.1181 13.7348 54.1181 13.9951V16.3541ZM54.1181 12.3864C54.1181 12.6468 53.9072 12.8575 53.6471 12.8575H48.2174C47.9573 12.8575 47.7464 12.6468 47.7464 12.3864V6.95635C47.7464 6.69597 47.9573 6.48528 48.2174 6.48528H53.6471C53.9072 6.48528 54.1181 6.69597 54.1181 6.95635V12.3864Z" fill="white"/>
<path d="M51.2543 9.3493H50.6123V9.99104H51.2543V9.3493Z" fill="white"/>
<path d="M40.047 7.42706H36.4453L36.4455 8.40691H38.5947C38.8549 8.40691 39.0658 8.6176 39.0658 8.87797V10.4618C39.0658 10.7222 38.8549 10.9329 38.5947 10.9329H36.446L36.4462 11.916H40.047V7.42706Z" fill="white"/>
</svg>
